<svg viewBox="0 0 158.75 238.12" xmlns="http://www.w3.org/2000/svg"><path d="M86.47 43.313v-14.75h3.326v5.678h5.09v-5.678h3.349v14.75h-3.349V37.16h-5.09v6.153zM100.82 43.313v-14.75h4.162q1.696 0 3.054.43t2.33 1.335q.973.882 1.493 2.262t.52 3.28-.52 3.303-1.47 2.33q-.95.905-2.285 1.358-1.312.452-2.941.452zm3.325-2.692h.633q.95 0 1.72-.249t1.312-.791q.543-.566.837-1.47.316-.906.316-2.24 0-1.313-.316-2.195-.294-.905-.837-1.425-.543-.543-1.313-.77t-1.719-.226h-.633zM31.075 26.435l.161-1.908c2.101-.193 2.488-.355 2.488-1.163a5.751 5.751 0 0 0-.162-1.131l-.678-2.487c-.84-.036-2.2-.068-2.976-.068-1.033 0-2.326.162-3.103.23l-.808 2.487a4.539 4.539 0 0 0-.193 1c0 .777.386 1.038 1.518 1.038h1.391l.162.224-.225 1.971s-2.653-.193-4.723-.193c-1.741 0-3.878.099-3.878.099l.229-2.101c1-.162 1.584-.745 2.132-2.2l4.602-13.23 3.43-5.99 3.784 5.774s2.15 7.843 3.929 13.406c.449 1.548 1.064 2.1 2.554 2.244l.126.225-.225 1.876s-2.554-.098-3.946-.098c-2.747 0-5.428.26-5.428.26zm-3.493-9.244h2.326c.682 0 1.714-.067 2.392-.099L30.222 9.24"/><path d="M41.513 22.363V15.93c0-1.455-.323-1.908-1.387-1.908-.26 0-.615.031-.615.031l-.162-.224.193-1.617a152.3 152.3 0 0 0 5.836-1.1l.292.292a23.794 23.794 0 0 0-.323 3.04l.193.125c1.347-2.033 3.07-3.196 4.525-3.196a6.568 6.568 0 0 1 1.132.094l.13.26s-.516 3.233-.647 5.837l-2.07.13c0-2.038-.16-2.554-.897-2.554s-1.522.547-2.2 1.454c0 0-.292 5.657-.292 6.24 0 1.132.292 1.487 1.262 1.487.583 0 1.616-.1 1.616-.1l.099.198-.36 2.133s-2.648-.13-4.166-.13c-1.975 0-4.04.13-4.04.13l.26-1.971c1.266-.085 1.62-.539 1.62-2.218z"/><path d="M50.317 19.387c0-4.818 3.264-8.243 7.852-8.243a12.544 12.544 0 0 1 4.108.646l.13.292a32.113 32.113 0 0 0-.714 4.979l-2.07.13v-1.068c0-1.486-.74-2.294-2.033-2.294-2.007 0-3.102 1.517-3.102 4.3 0 3.556 1.292 5.496 3.591 5.496a7.933 7.933 0 0 0 3.457-.939l.229.095.516 1.652s-2.909 2.388-4.848 2.388c-4.423-.013-7.116-2.842-7.116-7.434z"/><path d="M61.298 19.418c0-4.911 3.143-8.274 7.79-8.274 4.202 0 6.787 2.846 6.787 7.372 0 4.911-3.142 8.305-7.757 8.305-4.14-.013-6.82-2.94-6.82-7.403zm10.326.584c0-4.104-1.199-6.142-3.268-6.142-1.841 0-2.842 1.486-2.842 4.395 0 4.108 1.194 6.142 3.264 6.142 1.827 0 2.832-1.486 2.832-4.395z"/><path d="M81.294 11.822h-.256c-.031 1.167-.745 10.775-.745 11.542 0 .71.323 1.033 1.037 1.033l1.096-.032.197.162-.359 2.038c-.678-.031-2.842-.13-3.78-.13a25.743 25.743 0 0 0-3.201.26l.193-2.1c1.261-.13 1.715-.683 1.975-2.33.162-1.424 1.293-12.284 1.293-13.02 0-1.163-.52-1.486-2.46-1.648l-.162-.193.292-1.876c1.069.067 3.17.161 4.04.161 1.038 0 2.748-.094 3.43-.13 1.841 6.5 3.718 12.157 4.136 13.55h.26c.386-1.348 2.326-7.018 4.332-13.47.647 0 1.796.064 2.81.064.355 0 .715-.032 1.002-.032 1.037 0 3.008-.161 3.3-.193l.13.13-.198 1.94c-1.84.161-2.388.547-2.388 1.715 0 1.387.449 8.305.772 12.153.26 2.361.552 2.972 1.585 2.972.355 0 .808-.063.898-.063l.13.162-.292 2.038c-.39 0-2.132-.099-3.264-.099-1.423 0-4.462.225-4.592.26l.224-2.1c1.262-.162 1.796-.616 1.796-1.617s-.647-8.956-.678-11.156h-.292A428.43 428.43 0 0 0 88.51 26.65l-2.195.291a396.272 396.272 0 0 0-5.02-15.12z"/><path d="m107.746 24.334-.26-.099c-1.293 1.347-2.748 2.46-3.556 2.46-2.518 0-4.426-2.006-4.426-4.687a2.667 2.667 0 0 1 1.876-2.693l6.236-1.455.036-.777c0-1.84-1.037-2.94-2.783-2.94-1.195 0-2.694.678-3.78 1.517l-.292-.13-.548-1.94c1.872-1.063 4.813-2.455 5.913-2.455 3.753 0 5.387 1.908 5.387 4.395 0 1.1-.646 5.208-.646 6.663 0 .808.449 1.324 1.162 1.324a3.066 3.066 0 0 0 1.55-.548l.453.696c-.647 1.163-1.94 2.842-3.103 3.143-1.894 0-3.025-.858-3.219-2.474zm-.291-1.648.098-3.07-3.461.97a.947.947 0 0 0-.772 1.063 1.832 1.832 0 0 0 1.796 1.976 4.39 4.39 0 0 0 2.339-.939z"/><path d="m125.462 13.182-.13.193a4.454 4.454 0 0 1 1.293 3.201c0 3.295-2.94 5.756-6.95 5.756a8.687 8.687 0 0 1-2.101-.26c-.552.421-.777.745-.777 1.1 0 2.325 10.892.03 10.892 5.072 0 3.071-4.166 6.016-8.566 6.016-3.426 0-5.688-1.795-5.688-4.561a17.415 17.415 0 0 1 3.232-2.357v-.229c-2.038-.355-3.232-1.549-3.331-3.295a14.694 14.694 0 0 1 2.653-2.169v-.193a4.835 4.835 0 0 1-2.456-4.364c0-3.425 2.842-5.98 6.69-5.98 1.347 0 2.33.324 3.331.324a28.535 28.535 0 0 0 4.525-1.069l.193.13-.417 2.492c-.813.094-1.746.162-2.393.193zm-8.018 16.679c0 1.261 1.064 2.006 2.909 2.006 2.132 0 3.749-1.037 3.749-2.393 0-1.037-.84-1.324-5.433-1.939a3.219 3.219 0 0 0-1.225 2.326zm5.235-12.8c0-2.245-1.064-3.556-2.78-3.556-1.548 0-2.392 1.132-2.392 3.143 0 2.2 1.037 3.524 2.747 3.524 1.554.023 2.425-1.073 2.425-3.111z"/><path d="M126.234 19.387c0-4.687 3.269-8.243 7.632-8.243 3.592 0 5.428 1.845 5.428 5.495a8.189 8.189 0 0 1-.224 1.796l-.386.39h-8.373c.063 3.17 1.58 4.85 4.135 4.85a9.729 9.729 0 0 0 3.847-.97l.224.13.521 1.584c-1.347 1.033-3.784 2.389-5.495 2.389-4.53 0-7.309-2.829-7.309-7.421zm8.485-2.586c.517-.032.615-.162.615-.741 0-1.585-.713-2.393-2.038-2.393-1.679 0-2.779 1.163-3.003 3.394z"/><g fill="#ee3625"><path d="m30.482 25.851.162-1.908c2.1-.193 2.487-.354 2.487-1.162a5.751 5.751 0 0 0-.162-1.132l-.678-2.487c-.84-.036-2.2-.067-2.976-.067-1.033 0-2.326.161-3.102.229l-.808 2.487a4.539 4.539 0 0 0-.194 1.001c0 .777.387 1.037 1.518 1.037h1.392l.161.225-.224 1.97s-2.653-.193-4.723-.193c-1.742 0-3.879.1-3.879.1l.229-2.102c1.001-.161 1.585-.745 2.132-2.2L26.42 8.42l3.43-5.99 3.785 5.774s2.15 7.843 3.928 13.406c.45 1.549 1.064 2.101 2.555 2.245l.125.224-.224 1.877s-2.555-.099-3.946-.099c-2.748 0-5.428.26-5.428.26zm-3.493-9.243h2.326c.682 0 1.715-.068 2.393-.1l-2.079-7.851"/><path d="M40.92 21.78v-6.434c0-1.455-.323-1.908-1.387-1.908-.26 0-.615.031-.615.031l-.162-.224.193-1.616a152.3 152.3 0 0 0 5.837-1.1l.292.292a23.794 23.794 0 0 0-.324 3.039l.193.126c1.347-2.034 3.071-3.197 4.526-3.197a6.568 6.568 0 0 1 1.131.094l.13.26s-.516 3.233-.646 5.837l-2.07.13c0-2.038-.161-2.554-.898-2.554s-1.522.548-2.2 1.454c0 0-.291 5.657-.291 6.24 0 1.132.291 1.487 1.261 1.487.584 0 1.616-.099 1.616-.099l.1.198-.36 2.132s-2.649-.13-4.166-.13c-1.976 0-4.04.13-4.04.13l.26-1.97c1.266-.086 1.62-.54 1.62-2.219z"/><path d="M49.724 18.803c0-4.817 3.264-8.243 7.852-8.243a12.544 12.544 0 0 1 4.108.647l.13.292a32.113 32.113 0 0 0-.713 4.978l-2.07.13V15.54c0-1.486-.74-2.294-2.034-2.294-2.007 0-3.102 1.517-3.102 4.3 0 3.557 1.293 5.496 3.592 5.496a7.933 7.933 0 0 0 3.456-.938l.23.094.516 1.652s-2.91 2.389-4.849 2.389c-4.422-.014-7.116-2.842-7.116-7.435z"/><path d="M60.705 18.834c0-4.911 3.143-8.274 7.79-8.274 4.202 0 6.788 2.847 6.788 7.372 0 4.912-3.143 8.306-7.758 8.306-4.14-.014-6.82-2.941-6.82-7.404zm10.326.584c0-4.103-1.198-6.142-3.268-6.142-1.84 0-2.842 1.486-2.842 4.396 0 4.107 1.194 6.141 3.264 6.141 1.827 0 2.833-1.486 2.833-4.395z"/><path d="M80.702 11.238h-.256c-.032 1.167-.745 10.775-.745 11.543 0 .709.323 1.032 1.037 1.032l1.095-.031.198.161-.36 2.039c-.677-.032-2.841-.13-3.78-.13a25.743 25.743 0 0 0-3.2.26l.192-2.101c1.262-.13 1.715-.683 1.976-2.33.161-1.423 1.293-12.284 1.293-13.02 0-1.163-.521-1.486-2.46-1.647l-.162-.194.292-1.876c1.068.067 3.17.161 4.04.161 1.037 0 2.748-.094 3.43-.13 1.84 6.501 3.717 12.158 4.135 13.55h.26c.386-1.347 2.326-7.017 4.333-13.469.646 0 1.796.063 2.81.063.355 0 .714-.031 1.001-.031 1.037 0 3.008-.162 3.3-.194l.13.13-.197 1.94c-1.84.162-2.389.548-2.389 1.715 0 1.387.45 8.306.773 12.153.26 2.362.552 2.972 1.584 2.972.355 0 .808-.063.898-.063l.13.162-.291 2.038c-.391 0-2.133-.099-3.264-.099-1.423 0-4.463.225-4.593.26l.224-2.1c1.262-.162 1.796-.615 1.796-1.616s-.646-8.957-.678-11.157h-.291a428.43 428.43 0 0 0-5.047 14.838l-2.195.292a396.272 396.272 0 0 0-5.02-15.12z"/><path d="m107.154 23.75-.26-.098c-1.294 1.346-2.748 2.46-3.556 2.46-2.519 0-4.427-2.007-4.427-4.687a2.667 2.667 0 0 1 1.877-2.694l6.236-1.454.036-.777c0-1.84-1.038-2.94-2.784-2.94-1.194 0-2.694.677-3.78 1.517l-.292-.13-.548-1.94c1.872-1.064 4.813-2.456 5.913-2.456 3.753 0 5.387 1.908 5.387 4.395 0 1.1-.646 5.208-.646 6.663 0 .808.449 1.324 1.163 1.324a3.066 3.066 0 0 0 1.549-.547l.453.695c-.646 1.163-1.94 2.842-3.102 3.143-1.895 0-3.026-.857-3.22-2.474zm-.292-1.647.099-3.071-3.462.97a.947.947 0 0 0-.772 1.064 1.832 1.832 0 0 0 1.796 1.975 4.39 4.39 0 0 0 2.339-.938z"/><path d="m124.87 12.598-.13.194a4.454 4.454 0 0 1 1.292 3.2c0 3.296-2.94 5.756-6.95 5.756a8.687 8.687 0 0 1-2.1-.26c-.553.422-.777.745-.777 1.1 0 2.325 10.891.031 10.891 5.073 0 3.07-4.166 6.016-8.566 6.016-3.425 0-5.688-1.796-5.688-4.562a17.415 17.415 0 0 1 3.232-2.357v-.229c-2.038-.354-3.232-1.548-3.33-3.295a14.694 14.694 0 0 1 2.653-2.168v-.193a4.835 4.835 0 0 1-2.456-4.364c0-3.426 2.842-5.98 6.69-5.98 1.346 0 2.33.323 3.33.323a28.535 28.535 0 0 0 4.526-1.068l.193.13-.418 2.491c-.812.095-1.746.162-2.393.193zm-8.019 16.679c0 1.262 1.064 2.007 2.91 2.007 2.132 0 3.748-1.037 3.748-2.393 0-1.037-.84-1.325-5.432-1.94a3.219 3.219 0 0 0-1.226 2.326zm5.235-12.8c0-2.244-1.064-3.555-2.78-3.555-1.548 0-2.392 1.131-2.392 3.142 0 2.2 1.037 3.525 2.748 3.525 1.553.022 2.424-1.073 2.424-3.112z"/><path d="M125.642 18.803c0-4.687 3.268-8.243 7.632-8.243 3.591 0 5.428 1.845 5.428 5.495a8.189 8.189 0 0 1-.225 1.796l-.386.39h-8.373c.063 3.17 1.58 4.85 4.135 4.85a9.729 9.729 0 0 0 3.847-.97l.225.13.52 1.585c-1.346 1.032-3.784 2.388-5.494 2.388-4.53 0-7.31-2.828-7.31-7.421zm8.485-2.586c.516-.031.615-.162.615-.74 0-1.586-.714-2.394-2.038-2.394-1.68 0-2.78 1.163-3.004 3.394z"/></g><g fill="#1273eb"><path d="M85.874 42.73V27.98h3.325v5.678h5.09v-5.679h3.349v14.75h-3.349v-6.153H89.2v6.154zM100.227 42.73V27.98h4.162q1.697 0 3.054.43t2.33 1.334q.973.882 1.493 2.262t.52 3.28-.52 3.304-1.47 2.33q-.95.905-2.285 1.357-1.312.452-2.94.452zm3.325-2.692h.634q.95 0 1.719-.25t1.312-.791q.543-.566.837-1.47.317-.905.317-2.24 0-1.312-.317-2.195-.294-.904-.837-1.425-.543-.543-1.312-.769t-1.72-.226h-.633z"/></g><path d="M151.077 151.776H71.484V48.69h79.593c2.345 0 3.803 2.548 2.613 4.569l-27.63 46.975 27.63 46.975c1.19 2.021-.267 4.57-2.613 4.57z" fill="#e6e6e6"/><path d="M95.739 166.936H29.035a3.032 3.032 0 0 1-3.032-3.032v-97.02a3.032 3.032 0 0 1 3.032-3.032h69.733v100.053a3.032 3.032 0 0 1-3.032 3.032z" fill="#f9f9f9"/><path fill="#ccc" d="m71.484 48.69 27.288 15.16H71.484z"/><path d="M16.91 57.786h-3.033a3.032 3.032 0 0 0-3.032 3.032v160.691a3.032 3.032 0 0 0 3.032 3.032h3.032a3.032 3.032 0 0 0 3.032-3.032V60.818a3.032 3.032 0 0 0-3.032-3.032z" fill="#d2aa82"/><g fill="#784421"><path d="M10.845 75.977h15.16v-6.064h-15.16a3.032 3.032 0 0 0 0 6.064zM10.845 160.87h15.16v-6.063h-15.16a3.032 3.032 0 0 0 0 6.064z"/></g><path d="M19.941 63.85h-9.096v-3.032a3.032 3.032 0 0 1 3.032-3.032h3.032a3.032 3.032 0 0 1 3.032 3.032v3.032z" fill="#be876b"/></svg>