<svg width="268.93" height="93.064" xmlns="http://www.w3.org/2000/svg"><defs><linearGradient id="a" x1="133.24" x2="133.24" y1="40.252" y2="8.863" gradientUnits="userSpaceOnUse"><stop stop-color="#ee3625" offset="0"/><stop stop-color="#ee7d25" offset="1"/></linearGradient></defs><path d="M150.27 92.065V59.21h7.407v12.648h11.338V59.21h7.458v32.855h-7.458V78.359h-11.338v13.706zM182.23 92.065V59.21h9.272q3.78 0 6.802.957t5.19 2.973q2.167 1.966 3.326 5.04t1.16 7.306-1.16 7.357-3.275 5.19q-2.116 2.016-5.09 3.024-2.922 1.007-6.55 1.007zm7.407-5.997h1.411q2.117 0 3.83-.554t2.923-1.763q1.209-1.26 1.864-3.276.705-2.015.705-4.988 0-2.923-.705-4.888-.655-2.016-1.864-3.175-1.21-1.21-2.923-1.713t-3.83-.504h-1.41zM26.88 54.47l.36-4.25c4.68-.43 5.54-.79 5.54-2.59a12.81 12.81 0 0 0-.36-2.52l-1.51-5.54c-1.87-.08-4.9-.15-6.63-.15-2.3 0-5.18.36-6.91.51l-1.8 5.54a10.11 10.11 0 0 0-.43 2.23c0 1.73.86 2.31 3.38 2.31h3.1l.36.5-.5 4.39s-5.91-.43-10.52-.43c-3.88 0-8.64.22-8.64.22l.51-4.68c2.23-.36 3.53-1.66 4.75-4.9l10.25-29.47L25.47 2.3l8.43 12.86s4.79 17.47 8.75 29.86c1 3.45 2.37 4.68 5.69 5l.28.5-.5 4.18s-5.69-.22-8.79-.22c-6.12 0-12.09.58-12.09.58zM19.1 33.88h5.18c1.52 0 3.82-.15 5.33-.22l-4.63-17.49"/><path d="M50.13 45.4V31.07c0-3.24-.72-4.25-3.09-4.25-.58 0-1.37.07-1.37.07l-.36-.5.43-3.6c6.12-1 13-2.45 13-2.45l.65.65a53 53 0 0 0-.72 6.77l.43.28c3-4.53 6.84-7.12 10.08-7.12a14.63 14.63 0 0 1 2.52.21l.29.58s-1.15 7.2-1.44 13l-4.61.29c0-4.54-.36-5.69-2-5.69s-3.39 1.22-4.9 3.24c0 0-.65 12.6-.65 13.9 0 2.52.65 3.31 2.81 3.31 1.3 0 3.6-.22 3.6-.22l.22.44-.8 4.75s-5.9-.29-9.28-.29c-4.4 0-9 .29-9 .29l.58-4.39c2.82-.19 3.61-1.2 3.61-4.94z"/><path d="M69.74 38.77c0-10.73 7.27-18.36 17.49-18.36a27.94 27.94 0 0 1 9.15 1.44l.29.65a71.53 71.53 0 0 0-1.59 11.09l-4.61.29V31.5c0-3.31-1.65-5.11-4.53-5.11-4.47 0-6.91 3.38-6.91 9.58 0 7.92 2.88 12.24 8 12.24a17.67 17.67 0 0 0 7.7-2.09l.51.21 1.15 3.68s-6.48 5.32-10.8 5.32C75.74 55.3 69.74 49 69.74 38.77z"/><path d="M94.2 38.84c0-10.94 7-18.43 17.35-18.43 9.36 0 15.12 6.34 15.12 16.42 0 10.94-7 18.5-17.28 18.5-9.22-.03-15.19-6.55-15.19-16.49zm23 1.3c0-9.14-2.67-13.68-7.28-13.68-4.1 0-6.33 3.31-6.33 9.79 0 9.15 2.66 13.68 7.27 13.68 4.07 0 6.31-3.31 6.31-9.79z"/><path d="M138.74 21.92h-.57c-.07 2.6-1.66 24-1.66 25.71 0 1.58.72 2.3 2.31 2.3l2.44-.07.44.36-.8 4.54c-1.51-.07-6.33-.29-8.42-.29a57.34 57.34 0 0 0-7.13.58l.43-4.68c2.81-.29 3.82-1.52 4.4-5.19.36-3.17 2.88-27.36 2.88-29 0-2.59-1.16-3.31-5.48-3.67l-.36-.43.65-4.18c2.38.15 7.06.36 9 .36 2.31 0 6.12-.21 7.64-.29 4.1 14.48 8.28 27.08 9.21 30.18h.58c.86-3 5.18-15.63 9.65-30 1.44 0 4 .14 6.26.14.79 0 1.59-.07 2.23-.07 2.31 0 6.7-.36 7.35-.43l.29.29-.44 4.32c-4.1.36-5.32 1.22-5.32 3.82 0 3.09 1 18.5 1.72 27.07.58 5.26 1.23 6.62 3.53 6.62.79 0 1.8-.14 2-.14l.29.36-.65 4.54c-.87 0-4.75-.22-7.27-.22-3.17 0-9.94.5-10.23.58l.5-4.68c2.81-.36 4-1.37 4-3.6s-1.44-19.95-1.51-24.85h-.65c-2.6 7.2-7 19.73-11.24 33.05l-4.89.65c-4.31-13.95-8.56-26.3-11.18-33.68z"/><path d="m197.66 49.79-.58-.22c-2.88 3-6.12 5.48-7.92 5.48-5.61 0-9.86-4.47-9.86-10.44a5.94 5.94 0 0 1 4.18-6l13.89-3.24.08-1.73c0-4.1-2.31-6.55-6.2-6.55-2.66 0-6 1.51-8.42 3.38l-.65-.29-1.22-4.32c4.17-2.37 10.72-5.47 13.17-5.47 8.36 0 12 4.25 12 9.79 0 2.45-1.44 11.6-1.44 14.84 0 1.8 1 2.95 2.59 2.95a6.83 6.83 0 0 0 3.45-1.22l1.01 1.55c-1.44 2.59-4.32 6.33-6.91 7-4.22 0-6.74-1.91-7.17-5.51zm-.65-3.67.22-6.84-7.71 2.16a2.11 2.11 0 0 0-1.72 2.37 4.08 4.08 0 0 0 4 4.4 9.78 9.78 0 0 0 5.21-2.09z"/><path d="m237.12 24.95-.29.43a9.92 9.92 0 0 1 2.88 7.13c0 7.34-6.55 12.82-15.48 12.82a19.35 19.35 0 0 1-4.68-.58c-1.23.94-1.73 1.66-1.73 2.45 0 5.18 24.26.07 24.26 11.3 0 6.84-9.28 13.4-19.08 13.4-7.63 0-12.67-4-12.67-10.16a38.79 38.79 0 0 1 7.2-5.25v-.51c-4.54-.79-7.2-3.45-7.42-7.34a32.73 32.73 0 0 1 5.91-4.83v-.43a10.77 10.77 0 0 1-5.47-9.72c0-7.63 6.33-13.32 14.9-13.32 3 0 5.19.72 7.42.72a63.56 63.56 0 0 0 10.08-2.38l.43.29-.93 5.55c-1.81.21-3.89.36-5.33.43zM219.26 62.1c0 2.81 2.37 4.47 6.48 4.47 4.75 0 8.35-2.31 8.35-5.33 0-2.31-1.87-2.95-12.1-4.32a7.17 7.17 0 0 0-2.73 5.18zm11.66-28.51c0-5-2.37-7.92-6.19-7.92-3.45 0-5.33 2.52-5.33 7 0 4.9 2.31 7.85 6.12 7.85 3.46.05 5.4-2.39 5.4-6.93z"/><path d="M238.84 38.77c0-10.44 7.28-18.36 17-18.36 8 0 12.09 4.11 12.09 12.24a18.24 18.24 0 0 1-.5 4l-.86.87h-18.65c.14 7.06 3.52 10.8 9.21 10.8a21.67 21.67 0 0 0 8.57-2.16l.5.29 1.16 3.53c-3 2.3-8.43 5.32-12.24 5.32-10.09 0-16.28-6.3-16.28-16.53zm18.9-5.76c1.15-.07 1.37-.36 1.37-1.65 0-3.53-1.59-5.33-4.54-5.33-3.74 0-6.19 2.59-6.69 7.56z"/><g fill="url(#a)"><path d="m25.56 53.17.36-4.25c4.68-.43 5.54-.79 5.54-2.59a12.81 12.81 0 0 0-.36-2.52l-1.51-5.54c-1.87-.08-4.9-.15-6.63-.15-2.3 0-5.18.36-6.91.51l-1.8 5.54a10.11 10.11 0 0 0-.43 2.23c0 1.73.86 2.31 3.38 2.31h3.1l.36.5-.5 4.39s-5.91-.43-10.52-.43c-3.88 0-8.64.22-8.64.22l.51-4.68c2.23-.36 3.53-1.66 4.75-4.9l10.25-29.47L24.15 1l8.43 12.86s4.79 17.47 8.75 29.86c1 3.45 2.37 4.68 5.69 5l.28.5-.5 4.18s-5.69-.22-8.79-.22c-6.12 0-12.09.58-12.09.58zm-7.78-20.59h5.18c1.52 0 3.82-.15 5.33-.22l-4.63-17.49"/><path d="M48.81 44.1V29.77c0-3.24-.72-4.25-3.09-4.25-.58 0-1.37.07-1.37.07l-.36-.5.43-3.6c6.12-1 13-2.45 13-2.45l.65.65a53 53 0 0 0-.72 6.77l.43.28c3-4.53 6.84-7.12 10.08-7.12a14.63 14.63 0 0 1 2.52.21l.29.58s-1.15 7.2-1.44 13l-4.61.29c0-4.54-.36-5.69-2-5.69s-3.39 1.22-4.9 3.24c0 0-.65 12.6-.65 13.9 0 2.52.65 3.31 2.81 3.31 1.3 0 3.6-.22 3.6-.22l.22.44-.8 4.75s-5.9-.29-9.28-.29c-4.4 0-9 .29-9 .29l.58-4.39c2.82-.19 3.61-1.2 3.61-4.94z"/><path d="M68.42 37.47c0-10.73 7.27-18.36 17.49-18.36a27.94 27.94 0 0 1 9.15 1.44l.29.65a71.53 71.53 0 0 0-1.59 11.09l-4.61.29V30.2c0-3.31-1.65-5.11-4.53-5.11-4.47 0-6.91 3.38-6.91 9.58 0 7.92 2.88 12.24 8 12.24a17.67 17.67 0 0 0 7.7-2.09l.51.21 1.15 3.68s-6.48 5.32-10.8 5.32C74.42 54 68.42 47.7 68.42 37.47z"/><path d="M92.88 37.54c0-10.94 7-18.43 17.35-18.43 9.36 0 15.12 6.34 15.12 16.42 0 10.94-7 18.5-17.28 18.5-9.22-.03-15.19-6.55-15.19-16.49zm23 1.3c0-9.14-2.67-13.68-7.28-13.68-4.1 0-6.33 3.31-6.33 9.79 0 9.15 2.66 13.68 7.27 13.68 4.07 0 6.31-3.31 6.31-9.79z"/><path d="M137.42 20.62h-.57c-.07 2.6-1.66 24-1.66 25.71 0 1.58.72 2.3 2.31 2.3l2.44-.07.44.36-.8 4.54c-1.51-.07-6.33-.29-8.42-.29a57.34 57.34 0 0 0-7.13.58l.43-4.68c2.81-.29 3.82-1.52 4.4-5.19.36-3.17 2.88-27.36 2.88-29 0-2.59-1.16-3.31-5.48-3.67l-.36-.43.65-4.18c2.38.15 7.06.36 9 .36 2.31 0 6.12-.21 7.64-.29 4.1 14.48 8.28 27.08 9.21 30.18h.58c.86-3 5.18-15.63 9.65-30 1.44 0 4 .14 6.26.14.79 0 1.59-.07 2.23-.07 2.31 0 6.7-.36 7.35-.43l.29.29-.44 4.32c-4.1.36-5.32 1.22-5.32 3.82 0 3.09 1 18.5 1.72 27.07.58 5.26 1.23 6.62 3.53 6.62.79 0 1.8-.14 2-.14l.29.36-.65 4.54c-.87 0-4.75-.22-7.27-.22-3.17 0-9.94.5-10.23.58l.5-4.68c2.81-.36 4-1.37 4-3.6s-1.44-19.95-1.51-24.85h-.65c-2.6 7.2-7 19.73-11.24 33.05l-4.89.65c-4.31-13.95-8.56-26.3-11.18-33.68z"/><path d="m196.34 48.49-.58-.22c-2.88 3-6.12 5.48-7.92 5.48-5.61 0-9.86-4.47-9.86-10.44a5.94 5.94 0 0 1 4.18-6l13.89-3.24.08-1.73c0-4.1-2.31-6.55-6.2-6.55-2.66 0-6 1.51-8.42 3.38l-.65-.29-1.22-4.32c4.17-2.37 10.72-5.47 13.17-5.47 8.36 0 12 4.25 12 9.79 0 2.45-1.44 11.6-1.44 14.84 0 1.8 1 2.95 2.59 2.95a6.83 6.83 0 0 0 3.45-1.22l1.01 1.55c-1.44 2.59-4.32 6.33-6.91 7-4.22 0-6.74-1.91-7.17-5.51zm-.65-3.67.22-6.84-7.71 2.16a2.11 2.11 0 0 0-1.72 2.37 4.08 4.08 0 0 0 4 4.4 9.78 9.78 0 0 0 5.21-2.09z"/><path d="m235.8 23.65-.29.43a9.92 9.92 0 0 1 2.88 7.13c0 7.34-6.55 12.82-15.48 12.82a19.35 19.35 0 0 1-4.68-.58c-1.23.94-1.73 1.66-1.73 2.45 0 5.18 24.26.07 24.26 11.3 0 6.84-9.28 13.4-19.08 13.4-7.63 0-12.67-4-12.67-10.16a38.79 38.79 0 0 1 7.2-5.25v-.51c-4.54-.79-7.2-3.45-7.42-7.34a32.73 32.73 0 0 1 5.91-4.83v-.43a10.77 10.77 0 0 1-5.47-9.72c0-7.63 6.33-13.32 14.9-13.32 3 0 5.19.72 7.42.72a63.56 63.56 0 0 0 10.08-2.38l.43.29-.93 5.55c-1.81.21-3.89.36-5.33.43zM217.94 60.8c0 2.81 2.37 4.47 6.48 4.47 4.75 0 8.35-2.31 8.35-5.33 0-2.31-1.87-2.95-12.1-4.32a7.17 7.17 0 0 0-2.73 5.18zm11.66-28.51c0-5-2.37-7.92-6.19-7.92-3.45 0-5.33 2.52-5.33 7 0 4.9 2.31 7.85 6.12 7.85 3.46.05 5.4-2.39 5.4-6.93z"/><path d="M237.52 37.47c0-10.44 7.28-18.36 17-18.36 8 0 12.09 4.11 12.09 12.24a18.24 18.24 0 0 1-.5 4l-.86.87H246.6c.14 7.06 3.52 10.8 9.21 10.8a21.67 21.67 0 0 0 8.57-2.16l.5.29 1.16 3.53c-3 2.3-8.43 5.32-12.24 5.32-10.09 0-16.28-6.3-16.28-16.53zm18.9-5.76c1.15-.07 1.37-.36 1.37-1.65 0-3.53-1.59-5.33-4.54-5.33-3.74 0-6.19 2.59-6.69 7.56z"/></g><g fill="#1273eb"><path d="M148.94 90.765V57.91h7.407v12.648h11.338V57.91h7.458v32.855h-7.458V77.059h-11.338v13.706zM180.91 90.765V57.91h9.272q3.78 0 6.803.957t5.19 2.973q2.166 1.966 3.325 5.04t1.16 7.306-1.16 7.357-3.275 5.19q-2.116 2.016-5.09 3.024-2.922 1.007-6.55 1.007zm7.407-5.997h1.411q2.117 0 3.83-.554t2.923-1.763q1.209-1.26 1.864-3.276.705-2.015.705-4.988 0-2.923-.705-4.888-.655-2.016-1.864-3.175-1.21-1.21-2.923-1.713t-3.83-.504h-1.41z"/></g></svg>