<svg viewBox="0 0 158.75 238.12" xmlns="http://www.w3.org/2000/svg" xmlns:xlink="http://www.w3.org/1999/xlink"><defs><linearGradient id="b" x1="25.153" x2="28.837" y1="16.954" y2="54.124" gradientUnits="userSpaceOnUse"><stop stop-color="#00b400" offset="0"/><stop stop-color="#007800" offset="1"/></linearGradient><linearGradient id="a"><stop stop-color="#e7bc77" offset="0"/><stop stop-color="#e7bc77" stop-opacity="0" offset="1"/></linearGradient><linearGradient id="o" x1="65.269" x2="64.283" y1="231.06" y2="284" gradientUnits="userSpaceOnUse"><stop stop-color="#692017" offset="0"/><stop stop-color="#46150f" offset="1"/></linearGradient><linearGradient id="h" x1="88.013" x2="94.416" y1="41.805" y2="129.76" gradientUnits="userSpaceOnUse"><stop stop-color="#b88100" offset="0"/><stop stop-color="#fecd7b" offset="1"/></linearGradient><linearGradient id="g" x1="107.5" x2="106.5" y1="28" y2="36.5" gradientUnits="userSpaceOnUse"><stop stop-color="#804d00" offset="0"/><stop stop-color="#b98304" offset="1"/></linearGradient><linearGradient id="p" x1="98.5" x2="64.5" y1="993.86" y2="995.36" gradientTransform="matrix(1 0 0 1.2162 0 -965.81)" gradientUnits="userSpaceOnUse"><stop stop-color="#f0be63" offset="0"/><stop stop-color="#b88100" offset="1"/></linearGradient><linearGradient id="d" x1="25.153" x2="28.837" y1="16.954" y2="54.124" gradientUnits="userSpaceOnUse" xlink:href="#b"/><filter id="c"><feGaussianBlur stdDeviation=".243"/></filter><filter id="m">\<feGaussianBlur stdDeviation="2.732"/></filter><filter id="j" x="-.138" y="-.051" width="1.276" height="1.102"><feGaussianBlur stdDeviation="3.252"/></filter><filter id="k" x="-.127" y="-.047" width="1.255" height="1.094"><feGaussianBlur stdDeviation="3.001"/></filter><filter id="q" x="-.286" y="-.067" width="1.573" height="1.135"><feGaussianBlur stdDeviation="2.148"/></filter><filter id="r" x="-.133" y="-4.085" width="1.266" height="9.171"><feGaussianBlur stdDeviation="9.362"/></filter><radialGradient id="l" cx="-197.15" cy="316.24" r="42.421" gradientTransform="matrix(-1.1182 .05513 -.09068 -2.5015 -764.72 1065.3)" gradientUnits="userSpaceOnUse"><stop stop-color="#dcac62" offset="0"/><stop stop-color="#b88100" offset="1"/></radialGradient><radialGradient id="n" cx="-192.94" cy="403.74" r="62.047" gradientTransform="matrix(0 .41682 -.75285 0 403.49 210.47)" gradientUnits="userSpaceOnUse"><stop stop-color="#fcca77" offset="0"/><stop stop-color="#fcca77" stop-opacity="0" offset="1"/></radialGradient><radialGradient id="i" cx="-188.9" cy="456.47" r="62.047" gradientTransform="matrix(-.0979 0 0 -.69934 83.203 487.13)" gradientUnits="userSpaceOnUse"><stop stop-color="#f6c374" offset="0"/><stop stop-color="#b88100" offset="1"/></radialGradient><radialGradient id="f" cx="-273.75" cy="320.53" r="49.711" gradientTransform="matrix(-.61828 -1.9302 1.0465 -.30931 -456.37 -327.18)" gradientUnits="userSpaceOnUse" xlink:href="#a"/><radialGradient id="e" cx="-273.75" cy="320.53" r="49.711" gradientTransform="matrix(.61828 -1.9302 -1.0465 -.30931 657.37 -326.56)" gradientUnits="userSpaceOnUse" xlink:href="#a"/></defs><g transform="translate(.725 90.943) scale(2.4788)" fill="#001000" filter="url(#c)"><path d="M38.14 54.123c-12.97-13.287-10.454 4.822-22.15-4.06 12.407 1.898 8.922-7.862 22.961 3.1l-.812.96z"/><path d="M26.03 48.291c-6.176-2.315-1.787-1.006-8.86-5.98 2.305 3.494 1.952 5.154 5.612 5.98-5.566-1.306-6.042 1.001-11.15-2.732 3.424 3.399 3.932 5.927 14.399 2.732z"/><path d="M19.284 47.218c-4.19-5.093-1.192-4.497-5.642-10.274 1.43 4.4.073 6.104 2.829 8.65-4.167-3.915-5.216-1.268-8.511-6.611 1.265 4.655.663 5.77 11.324 8.235z"/><path d="M14.22 43.106c-1.97-4.956-.778-8.626-2.26-11.276-.888 4.6-.922 6.061.044 8.537-2.168-4.588-3.07-2.082-5.91-7.988-.199 4.885 2.488 7.395 8.125 10.727z"/><path d="M10.554 37.101c-.618-5.296 1.186-3.955 1.622-11.403-2.786 4.656-3.05 5.838-2.757 8.479-.907-4.992-1.69-3.101-2.904-9.54-1.455 4.667-.544 7.786 4.04 12.464z"/><path d="M8.963 30.491c.994-5.202 4.163-4.4 4.665-9.93-1.681 3.85-3.792 1.675-4.562 6.738.416-5.057-1.124-6.755.255-9.524-3.426 3.467-1.877 6.2-.358 12.716z"/><path d="M9.775 24.215c1.659-4.833 5.64-2.701 6.142-8.231-1.681 2.594-3.201 1.453-5.374 5.556 1.154-3.137-.165-3.359 2.691-7.235-3.647 1.99-3.944 3.542-3.46 9.91z"/><path d="M12.075 18.61c4.341-3.118 2.278-2.829 6.498-6.941-6.39 2.579-4.81 3.349-6.498 6.94zM25.319 53.851c12.969-13.287 10.453 4.822 22.15-4.06-12.408 1.897-8.923-7.862-22.962 3.1l.812.96z"/><path d="M37.428 48.019c6.176-2.316 1.788-1.006 8.86-5.98-2.304 3.493-1.952 5.153-5.611 5.98 5.565-1.307 6.042 1.001 11.149-2.732-3.424 3.399-3.932 5.927-14.398 2.732z"/><path d="M44.173 46.946c4.19-5.093 1.193-4.497 5.643-10.274-1.43 4.4-.074 6.104-2.83 8.65 4.167-3.915 5.217-1.269 8.511-6.612-1.265 4.655-.662 5.77-11.324 8.236z"/><path d="M49.239 42.834c1.969-4.956.778-8.626 2.26-11.276.887 4.599.921 6.061-.045 8.536 2.168-4.587 3.071-2.082 5.91-7.987.199 4.885-2.487 7.395-8.125 10.727z"/><path d="M52.904 36.829c.619-5.297-1.186-3.956-1.621-11.403 2.786 4.656 3.049 5.838 2.756 8.478.907-4.992 1.69-3.1 2.904-9.54 1.456 4.668.544 7.787-4.039 12.465z"/><path d="M54.495 30.219c-.995-5.202-4.163-4.4-4.665-9.93 1.68 3.85 3.791 1.675 4.562 6.738-.417-5.057 1.124-6.755-.256-9.524 3.427 3.467 1.877 6.2.359 12.716z"/><path d="M53.683 23.943c-1.66-4.833-5.64-2.702-6.142-8.232 1.681 2.595 3.201 1.453 5.374 5.557-1.154-3.137.165-3.36-2.692-7.235 3.648 1.99 3.944 3.541 3.46 9.91z"/><path d="M51.382 18.337c-4.34-3.118-2.278-2.828-6.497-6.94 6.389 2.578 4.81 3.349 6.497 6.94z"/></g><g transform="translate(1.377 90.943) scale(2.4788)" fill="url(#d)"><path d="M38.14 54.123c-12.97-13.287-10.454 4.822-22.15-4.06 12.407 1.898 8.922-7.862 22.961 3.1l-.812.96z"/><path d="M26.03 48.291c-6.176-2.315-1.787-1.006-8.86-5.98 2.305 3.494 1.952 5.154 5.612 5.98-5.566-1.306-6.042 1.001-11.15-2.732 3.424 3.399 3.932 5.927 14.399 2.732z"/><path d="M19.284 47.218c-4.19-5.093-1.192-4.497-5.642-10.274 1.43 4.4.073 6.104 2.829 8.65-4.167-3.915-5.216-1.268-8.511-6.611 1.265 4.655.663 5.77 11.324 8.235z"/><path d="M14.22 43.106c-1.97-4.956-.778-8.626-2.26-11.276-.888 4.6-.922 6.061.044 8.537-2.168-4.588-3.07-2.082-5.91-7.988-.199 4.885 2.488 7.395 8.125 10.727z"/><path d="M10.554 37.101c-.618-5.296 1.186-3.955 1.622-11.403-2.786 4.656-3.05 5.838-2.757 8.479-.907-4.992-1.69-3.101-2.904-9.54-1.455 4.667-.544 7.786 4.04 12.464z"/><path d="M8.963 30.491c.994-5.202 4.163-4.4 4.665-9.93-1.681 3.85-3.792 1.675-4.562 6.738.416-5.057-1.124-6.755.255-9.524-3.426 3.467-1.877 6.2-.358 12.716z"/><path d="M9.775 24.215c1.659-4.833 5.64-2.701 6.142-8.231-1.681 2.594-3.201 1.453-5.374 5.556 1.154-3.137-.165-3.359 2.691-7.235-3.647 1.99-3.944 3.542-3.46 9.91z"/><path d="M12.075 18.61c4.341-3.118 2.278-2.829 6.498-6.941-6.39 2.579-4.81 3.349-6.498 6.94zM25.319 53.851c12.969-13.287 10.453 4.822 22.15-4.06-12.408 1.897-8.923-7.862-22.962 3.1l.812.96z"/><path d="M37.428 48.019c6.176-2.316 1.788-1.006 8.86-5.98-2.304 3.493-1.952 5.153-5.611 5.98 5.565-1.307 6.042 1.001 11.149-2.732-3.424 3.399-3.932 5.927-14.398 2.732z"/><path d="M44.173 46.946c4.19-5.093 1.193-4.497 5.643-10.274-1.43 4.4-.074 6.104-2.83 8.65 4.167-3.915 5.217-1.269 8.511-6.612-1.265 4.655-.662 5.77-11.324 8.236z"/><path d="M49.239 42.834c1.969-4.956.778-8.626 2.26-11.276.887 4.599.921 6.061-.045 8.536 2.168-4.587 3.071-2.082 5.91-7.987.199 4.885-2.487 7.395-8.125 10.727z"/><path d="M52.904 36.829c.619-5.297-1.186-3.956-1.621-11.403 2.786 4.656 3.049 5.838 2.756 8.478.907-4.992 1.69-3.1 2.904-9.54 1.456 4.668.544 7.787-4.039 12.465z"/><path d="M54.495 30.219c-.995-5.202-4.163-4.4-4.665-9.93 1.68 3.85 3.791 1.675 4.562 6.738-.417-5.057 1.124-6.755-.256-9.524 3.427 3.467 1.877 6.2.359 12.716z"/><path d="M53.683 23.943c-1.66-4.833-5.64-2.702-6.142-8.232 1.681 2.595 3.201 1.453 5.374 5.557-1.154-3.137.165-3.36-2.692-7.235 3.648 1.99 3.944 3.541 3.46 9.91z"/><path d="M51.382 18.337c-4.34-3.118-2.278-2.828-6.497-6.94 6.389 2.578 4.81 3.349 6.497 6.94z"/></g><path d="M119.446 45.663c-.762.002-1.548.04-2.33.099-1.564.12-3.095.335-4.328.587-.616.126-1.16.256-1.605.398s-.758.233-1.107.547c-.843.756-1.241 1.746-1.419 2.735s-.166 2-.165 2.964-.017 1.876-.187 2.605-.448 1.254-1.014 1.651c-.306.214-1.545.335-2.64.219s-2.03-.348-2.03-.348l-.414 1.532s1.035.256 2.267.387 2.682.259 3.79-.517c.941-.659 1.43-1.608 1.656-2.576s.218-1.98.218-2.954.003-1.908.145-2.695.4-1.391.91-1.85c-.088.08.163-.085.518-.199s.845-.24 1.419-.358c1.148-.234 2.63-.442 4.12-.557s2.998-.124 4.183.01 1.993.498 2.133.677c1.854 2.365 2.17 6.447 1.15 11.367s-3.338 10.625-6.41 16.162c-6.143 11.073-16.48 20.404-23.998 22.863l.528 1.502c8.428-2.757 18.658-12.333 24.92-23.62 3.13-5.643 5.508-11.46 6.575-16.598s.877-9.662-1.45-12.631c-.706-.901-1.893-1.14-3.25-1.293a19.277 19.277 0 0 0-2.185-.11z" fill="#b88100"/><path d="M174.04 16.123c1.52-.004 2.982.062 4.336.207 2.708.29 5.075.741 6.484 2.445 4.64 5.614 5.017 14.168 2.89 23.885s-6.847 20.717-13.09 31.389c-12.488 21.344-32.828 39.428-49.636 44.642l-1.053-2.84c14.994-4.65 35.525-22.271 47.777-43.212 6.126-10.471 10.744-21.256 12.781-30.562s1.404-17.025-2.292-21.497c-.28-.338-1.889-1.025-4.253-1.279s-5.368-.235-8.342-.019-5.928.61-8.218 1.053c-1.145.222-2.119.463-2.829.678s-1.21.527-1.032.376c-1.02.867-1.535 2.01-1.817 3.498s-.269 3.256-.268 5.096-.004 3.757-.455 5.586-1.426 3.625-3.303 4.871c-2.21 1.466-5.099 1.226-7.558.978s-4.521-.733-4.521-.733l.825-2.897s1.863.439 4.047.659 4.656-.01 5.266-.414c1.13-.75 1.704-1.743 2.044-3.122s.372-3.106.371-4.928-.044-3.734.31-5.604 1.148-3.743 2.829-5.172c.697-.593 1.345-.767 2.23-1.035s1.95-.514 3.18-.752c2.458-.475 5.512-.883 8.63-1.11a67.291 67.291 0 0 1 4.667-.187z" fill="url(#e)" transform="translate(28.893 37.557) scale(.52267)"/><path d="M42.663 45.663a19.032 19.032 0 0 0-2.174.109c-1.358.154-2.545.392-3.25 1.293-2.327 2.969-2.517 7.492-1.45 12.63s3.433 10.956 6.564 16.6c6.261 11.287 16.503 20.863 24.93 23.62l.529-1.503c-7.519-2.46-17.856-11.79-24-22.863-3.071-5.537-5.387-11.24-6.408-16.162s-.704-9.003 1.149-11.367c.14-.18.947-.542 2.133-.677s2.692-.124 4.183-.01 2.972.323 4.12.557c.574.118 1.063.245 1.419.358s.606.28.517.2c.512.458.77 1.063.912 1.85s.134 1.721.134 2.694.002 1.987.228 2.954.715 1.917 1.656 2.576c1.108.776 2.557.648 3.79.517s2.267-.387 2.267-.387l-.414-1.532s-.934.232-2.03.348-2.334-.005-2.64-.219c-.566-.397-.854-.921-1.024-1.65s-.187-1.643-.187-2.606.023-1.975-.155-2.964-.575-1.98-1.418-2.735c-.35-.314-.675-.406-1.119-.547s-.978-.272-1.594-.398a36.275 36.275 0 0 0-4.328-.587 32.004 32.004 0 0 0-2.34-.1z" fill="#b88100"/><path d="M26.954 15.508a40.007 40.007 0 0 0-4.336.207c-2.708.29-5.075.741-6.484 2.445-4.64 5.614-5.017 14.168-2.89 23.885s6.847 20.717 13.09 31.389c12.488 21.344 32.828 41.428 49.636 46.642l1.053-2.84c-14.994-4.65-35.525-24.271-47.777-45.212-6.126-10.471-10.744-21.256-12.781-30.562s-1.405-17.025 2.292-21.497c.28-.338 1.889-1.025 4.253-1.279s5.368-.235 8.342-.019 5.928.61 8.218 1.053c1.145.222 2.119.463 2.829.677s1.21.528 1.032.377c1.02.866 1.535 2.01 1.817 3.498s.269 3.256.268 5.096.004 3.757.455 5.586 1.426 3.625 3.303 4.871c2.21 1.466 5.099 1.226 7.558.978s4.521-.733 4.521-.733l-.825-2.897s-1.863.438-4.047.659-4.656-.01-5.266-.414c-1.13-.75-1.704-1.743-2.044-3.122s-.372-3.106-.371-4.928.044-3.734-.31-5.604-1.148-3.743-2.829-5.172c-.697-.593-1.345-.767-2.23-1.035s-1.95-.514-3.18-.752c-2.458-.475-5.512-.883-8.63-1.11a67.298 67.298 0 0 0-4.667-.188z" fill="url(#f)" transform="translate(28.893 37.557) scale(.52267)"/><path d="m53.119 168 55.952-.411 2.303 7.394H51.801z" fill="#310e0a"/><path d="m94.944 30.73.08.19c-5.05.112-10.94.257-14.699.419-8.835.381-26.247 3.691-26.247 3.691l-1.287 3.692s18.718-3.314 28.188-3.692c6.342-.252 14.72-.754 18.838-1.008 4.13.255 12.486.756 18.818 1.008 9.47.378 28.168 3.692 28.168 3.692l-1.268-3.692s-17.411-3.31-26.247-3.691c-3.759-.162-9.65-.307-14.698-.419l.079-.19-4.853.095-4.873-.095z" fill="url(#g)" transform="translate(28.893 37.557) scale(.52267)"/><path d="M97.499 33.813v.19c-13.348.34-25.524-.82-43.421 5.347 0 0-1.422 31.09 3.209 47.971 3.454 12.591 9.336 27.351 19.195 36.287 14.011 10.988 34.003 10.628 46.63 0 9.859-8.936 15.76-23.696 19.215-36.287 4.631-16.88 3.209-47.97 3.209-47.97-17.906-6.17-30.085-5.025-43.441-5.367v-.171l-2.298.114c-.757-.03-1.53-.07-2.298-.114z" fill="url(#h)" transform="translate(28.893 37.557) scale(.52267)"/><path d="m91.761 128.65 1.657 8.002 1.657 18.483-4.971 4.306 3.86 4.934s4.878 23.37-5.455 32.212c-2.353 2.014-2.14-1.175-2.14-1.175l-5.755 3.508-15.368 7.945c10.325 10.323 22.174 8.747 33.911 8.04 11.738.707 23.603 2.283 33.928-8.04l-15.368-7.945-5.754-3.508s.213 3.189-2.14 1.175c-10.333-8.842-5.456-32.212-5.456-32.212l3.86-4.934-4.97-4.307 1.657-18.481 1.657-8.003c-13.445 5.184-4.561 2.208-14.812 0z" fill="url(#i)" transform="translate(28.893 37.557) scale(.52267)"/><path d="m63.266 145.54-6.7.124-2.01 11.57c19.332.695 33.897.148 53.485 0l-3.013-11.57c-2.738-.054-8.972.067-6.44-.646-10.155 5.337-27.506 6.945-35.325.523z" fill="#3a0704"/><g fill="#804d00"><path d="M76.13 138.438c-1.383.379-2.241.911-2.241 1.501 0 1.154 3.29 2.089 7.345 2.089s7.336-.935 7.336-2.089c0-.59-.858-1.122-2.242-1.501-.27.231-.572.446-.909.636.627.244 1.006.54 1.006.865 0 .815-2.325 1.472-5.19 1.472s-5.19-.657-5.19-1.472c0-.325.368-.62.995-.865a5.689 5.689 0 0 1-.909-.636z"/><path transform="matrix(.33131 0 0 .31826 270.738 -17.282)" d="M-592.13 378.35c-24.342-21.175-40.342-23.958-46.467-141.42l6.06-2.02c.998 55.244-7.933 101.35 40.407 143.44z" filter="url(#j)"/><path transform="matrix(.33131 0 0 .31826 270.738 -17.282)" d="M-561.83 388.45c24.342-21.175 50.443-33.049 56.569-150.51l-6.06-2.02c-.998 55.244-2.168 110.44-50.509 152.53z" filter="url(#k)"/></g><path transform="matrix(.33131 0 0 .31826 270.738 -17.282)" d="m-614.36 236.18 13.132 83.573 60.609-1.145 10.102-84.718c-29.798-11.819-56.632-3.486-83.843 2.29z" fill="url(#l)" filter="url(#m)"/><path d="m90.579 127.65 1.921 8.092 1.922 18.689-5.765 4.354 4.477 4.99s5.635 21.095-6.992 30.518c-2.876 2.146-2.615-1.252-2.615-1.252l-7.032 3.738-16.66 9.96c11.973 10.438 25.71 8.845 39.32 8.13 13.612.715 27.369 2.309 39.34-8.13l-16.658-9.96-7.032-3.738s.26 3.398-2.615 1.252c-12.627-9.423-6.992-30.518-6.992-30.518l4.476-4.99-5.764-4.354 1.921-18.689 1.922-8.092c-15.59 5.242-5.289 2.233-17.174 0z" fill="url(#n)" transform="translate(28.893 37.557) scale(.52267)"/><path d="M50.103 227.87h100.57a.509.509 0 0 1 .509.509v27.161a.509.509 0 0 1-.509.51H50.103a.509.509 0 0 1-.509-.51v-27.161a.509.509 0 0 1 .509-.509" fill="url(#o)" transform="translate(28.893 37.557) scale(.52267)"/><path d="M51.728 174.659h59.574v5.585H51.728z" fill="#692017"/><path d="M73.006 232c.004.043.033.083.033.126 0 1.994 2.06 3.64-3.04 3.887v6.858c0 .142.232.253.532.253-.3 0-.531.107-.531.252v7.016c5.099.252 3.04 1.942 3.04 3.982 0 .044-.03.083-.034.126h50.682c-.063-.17-.133-.346-.133-.521 0-1.714-.886-3.153 3.444-3.666v-6.937c0-.145-.231-.252-.531-.252.3 0 .531-.11.531-.253v-6.779c-4.33-.502-3.444-1.911-3.444-3.586 0-.172.07-.34.133-.506z" fill="url(#p)" transform="translate(28.893 37.557) scale(.52267)"/><path d="m95.5 194 2.5-11.5 1-16.5-3-4.5 2-3-2.5-26.5c-8.534-2.613-12.614-7.898-14.5-14.5" fill="none" filter="url(#q)" opacity=".224" stroke="#000" transform="translate(28.893 37.557) scale(.52267)"/><path transform="matrix(.52267 0 0 -.18027 28.154 366.703)" d="m13.5 1025.9 31-2.86 114.5-.66 23.5 3.08-20 2.42H49z" fill="#2d2d2d" filter="url(#r)"/><path d="M86.47 43.313v-14.75h3.326v5.678h5.09v-5.678h3.349v14.75h-3.349V37.16h-5.09v6.153zM100.82 43.313v-14.75h4.162q1.696 0 3.054.43t2.33 1.335q.973.882 1.493 2.262t.52 3.28-.52 3.303-1.47 2.33q-.95.905-2.285 1.358-1.312.452-2.941.452zm3.325-2.692h.633q.95 0 1.72-.249t1.312-.791q.543-.566.837-1.47.316-.906.316-2.24 0-1.313-.316-2.195-.294-.905-.837-1.425-.543-.543-1.313-.77t-1.719-.226h-.633zM31.075 26.435l.161-1.908c2.101-.193 2.488-.355 2.488-1.163a5.751 5.751 0 0 0-.162-1.131l-.678-2.487c-.84-.036-2.2-.068-2.976-.068-1.033 0-2.326.162-3.103.23l-.808 2.487a4.539 4.539 0 0 0-.193 1c0 .777.386 1.038 1.518 1.038h1.391l.162.224-.225 1.971s-2.653-.193-4.723-.193c-1.741 0-3.878.099-3.878.099l.229-2.101c1-.162 1.584-.745 2.132-2.2l4.602-13.23 3.43-5.99 3.784 5.774s2.15 7.843 3.929 13.406c.449 1.548 1.064 2.1 2.554 2.244l.126.225-.225 1.876s-2.554-.098-3.946-.098c-2.747 0-5.428.26-5.428.26zm-3.493-9.244h2.326c.682 0 1.714-.067 2.392-.099L30.222 9.24"/><path d="M41.513 22.363V15.93c0-1.455-.323-1.908-1.387-1.908-.26 0-.615.031-.615.031l-.162-.224.193-1.617a152.3 152.3 0 0 0 5.836-1.1l.292.292a23.794 23.794 0 0 0-.323 3.04l.193.125c1.347-2.033 3.07-3.196 4.525-3.196a6.568 6.568 0 0 1 1.132.094l.13.26s-.516 3.233-.647 5.837l-2.07.13c0-2.038-.16-2.554-.897-2.554s-1.522.547-2.2 1.454c0 0-.292 5.657-.292 6.24 0 1.132.292 1.487 1.262 1.487.583 0 1.616-.1 1.616-.1l.099.198-.36 2.133s-2.648-.13-4.166-.13c-1.975 0-4.04.13-4.04.13l.26-1.971c1.266-.085 1.62-.539 1.62-2.218z"/><path d="M50.317 19.387c0-4.818 3.264-8.243 7.852-8.243a12.544 12.544 0 0 1 4.108.646l.13.292a32.113 32.113 0 0 0-.714 4.979l-2.07.13v-1.068c0-1.486-.74-2.294-2.033-2.294-2.007 0-3.102 1.517-3.102 4.3 0 3.556 1.292 5.496 3.591 5.496a7.933 7.933 0 0 0 3.457-.939l.229.095.516 1.652s-2.909 2.388-4.848 2.388c-4.423-.013-7.116-2.842-7.116-7.434z"/><path d="M61.298 19.418c0-4.911 3.143-8.274 7.79-8.274 4.202 0 6.787 2.846 6.787 7.372 0 4.911-3.142 8.305-7.757 8.305-4.14-.013-6.82-2.94-6.82-7.403zm10.326.584c0-4.104-1.199-6.142-3.268-6.142-1.841 0-2.842 1.486-2.842 4.395 0 4.108 1.194 6.142 3.264 6.142 1.827 0 2.832-1.486 2.832-4.395z"/><path d="M81.294 11.822h-.256c-.031 1.167-.745 10.775-.745 11.542 0 .71.323 1.033 1.037 1.033l1.096-.032.197.162-.359 2.038c-.678-.031-2.842-.13-3.78-.13a25.743 25.743 0 0 0-3.201.26l.193-2.1c1.261-.13 1.715-.683 1.975-2.33.162-1.424 1.293-12.284 1.293-13.02 0-1.163-.52-1.486-2.46-1.648l-.162-.193.292-1.876c1.069.067 3.17.161 4.04.161 1.038 0 2.748-.094 3.43-.13 1.841 6.5 3.718 12.157 4.136 13.55h.26c.386-1.348 2.326-7.018 4.332-13.47.647 0 1.796.064 2.81.064.355 0 .715-.032 1.002-.032 1.037 0 3.008-.161 3.3-.193l.13.13-.198 1.94c-1.84.161-2.388.547-2.388 1.715 0 1.387.449 8.305.772 12.153.26 2.361.552 2.972 1.585 2.972.355 0 .808-.063.898-.063l.13.162-.292 2.038c-.39 0-2.132-.099-3.264-.099-1.423 0-4.462.225-4.592.26l.224-2.1c1.262-.162 1.796-.616 1.796-1.617s-.647-8.956-.678-11.156h-.292A428.43 428.43 0 0 0 88.51 26.65l-2.195.291a396.272 396.272 0 0 0-5.02-15.12z"/><path d="m107.746 24.334-.26-.099c-1.293 1.347-2.748 2.46-3.556 2.46-2.518 0-4.426-2.006-4.426-4.687a2.667 2.667 0 0 1 1.876-2.693l6.236-1.455.036-.777c0-1.84-1.037-2.94-2.783-2.94-1.195 0-2.694.678-3.78 1.517l-.292-.13-.548-1.94c1.872-1.063 4.813-2.455 5.913-2.455 3.753 0 5.387 1.908 5.387 4.395 0 1.1-.646 5.208-.646 6.663 0 .808.449 1.324 1.162 1.324a3.066 3.066 0 0 0 1.55-.548l.453.696c-.647 1.163-1.94 2.842-3.103 3.143-1.894 0-3.025-.858-3.219-2.474zm-.291-1.648.098-3.07-3.461.97a.947.947 0 0 0-.772 1.063 1.832 1.832 0 0 0 1.796 1.976 4.39 4.39 0 0 0 2.339-.939z"/><path d="m125.462 13.182-.13.193a4.454 4.454 0 0 1 1.293 3.201c0 3.295-2.94 5.756-6.95 5.756a8.687 8.687 0 0 1-2.101-.26c-.552.421-.777.745-.777 1.1 0 2.325 10.892.03 10.892 5.072 0 3.071-4.166 6.016-8.566 6.016-3.426 0-5.688-1.795-5.688-4.561a17.415 17.415 0 0 1 3.232-2.357v-.229c-2.038-.355-3.232-1.549-3.331-3.295a14.694 14.694 0 0 1 2.653-2.169v-.193a4.835 4.835 0 0 1-2.456-4.364c0-3.425 2.842-5.98 6.69-5.98 1.347 0 2.33.324 3.331.324a28.535 28.535 0 0 0 4.525-1.069l.193.13-.417 2.492c-.813.094-1.746.162-2.393.193zm-8.018 16.679c0 1.261 1.064 2.006 2.909 2.006 2.132 0 3.749-1.037 3.749-2.393 0-1.037-.84-1.324-5.433-1.939a3.219 3.219 0 0 0-1.225 2.326zm5.235-12.8c0-2.245-1.064-3.556-2.78-3.556-1.548 0-2.392 1.132-2.392 3.143 0 2.2 1.037 3.524 2.747 3.524 1.554.023 2.425-1.073 2.425-3.111z"/><path d="M126.234 19.387c0-4.687 3.269-8.243 7.632-8.243 3.592 0 5.428 1.845 5.428 5.495a8.189 8.189 0 0 1-.224 1.796l-.386.39h-8.373c.063 3.17 1.58 4.85 4.135 4.85a9.729 9.729 0 0 0 3.847-.97l.224.13.521 1.584c-1.347 1.033-3.784 2.389-5.495 2.389-4.53 0-7.309-2.829-7.309-7.421zm8.485-2.586c.517-.032.615-.162.615-.741 0-1.585-.713-2.393-2.038-2.393-1.679 0-2.779 1.163-3.003 3.394z"/><g fill="#ee3625"><path d="m30.482 25.851.162-1.908c2.1-.193 2.487-.354 2.487-1.162a5.751 5.751 0 0 0-.162-1.132l-.678-2.487c-.84-.036-2.2-.067-2.976-.067-1.033 0-2.326.161-3.102.229l-.808 2.487a4.539 4.539 0 0 0-.194 1.001c0 .777.387 1.037 1.518 1.037h1.392l.161.225-.224 1.97s-2.653-.193-4.723-.193c-1.742 0-3.879.1-3.879.1l.229-2.102c1.001-.161 1.585-.745 2.132-2.2L26.42 8.42l3.43-5.99 3.785 5.774s2.15 7.843 3.928 13.406c.45 1.549 1.064 2.101 2.555 2.245l.125.224-.224 1.877s-2.555-.099-3.946-.099c-2.748 0-5.428.26-5.428.26zm-3.493-9.243h2.326c.682 0 1.715-.068 2.393-.1l-2.079-7.851"/><path d="M40.92 21.78v-6.434c0-1.455-.323-1.908-1.387-1.908-.26 0-.615.031-.615.031l-.162-.224.193-1.616a152.3 152.3 0 0 0 5.837-1.1l.292.292a23.794 23.794 0 0 0-.324 3.039l.193.126c1.347-2.034 3.071-3.197 4.526-3.197a6.568 6.568 0 0 1 1.131.094l.13.26s-.516 3.233-.646 5.837l-2.07.13c0-2.038-.161-2.554-.898-2.554s-1.522.548-2.2 1.454c0 0-.291 5.657-.291 6.24 0 1.132.291 1.487 1.261 1.487.584 0 1.616-.099 1.616-.099l.1.198-.36 2.132s-2.649-.13-4.166-.13c-1.976 0-4.04.13-4.04.13l.26-1.97c1.266-.086 1.62-.54 1.62-2.219z"/><path d="M49.724 18.803c0-4.817 3.264-8.243 7.852-8.243a12.544 12.544 0 0 1 4.108.647l.13.292a32.113 32.113 0 0 0-.713 4.978l-2.07.13V15.54c0-1.486-.74-2.294-2.034-2.294-2.007 0-3.102 1.517-3.102 4.3 0 3.557 1.293 5.496 3.592 5.496a7.933 7.933 0 0 0 3.456-.938l.23.094.516 1.652s-2.91 2.389-4.849 2.389c-4.422-.014-7.116-2.842-7.116-7.435z"/><path d="M60.705 18.834c0-4.911 3.143-8.274 7.79-8.274 4.202 0 6.788 2.847 6.788 7.372 0 4.912-3.143 8.306-7.758 8.306-4.14-.014-6.82-2.941-6.82-7.404zm10.326.584c0-4.103-1.198-6.142-3.268-6.142-1.84 0-2.842 1.486-2.842 4.396 0 4.107 1.194 6.141 3.264 6.141 1.827 0 2.833-1.486 2.833-4.395z"/><path d="M80.702 11.238h-.256c-.032 1.167-.745 10.775-.745 11.543 0 .709.323 1.032 1.037 1.032l1.095-.031.198.161-.36 2.039c-.677-.032-2.841-.13-3.78-.13a25.743 25.743 0 0 0-3.2.26l.192-2.101c1.262-.13 1.715-.683 1.976-2.33.161-1.423 1.293-12.284 1.293-13.02 0-1.163-.521-1.486-2.46-1.647l-.162-.194.292-1.876c1.068.067 3.17.161 4.04.161 1.037 0 2.748-.094 3.43-.13 1.84 6.501 3.717 12.158 4.135 13.55h.26c.386-1.347 2.326-7.017 4.333-13.469.646 0 1.796.063 2.81.063.355 0 .714-.031 1.001-.031 1.037 0 3.008-.162 3.3-.194l.13.13-.197 1.94c-1.84.162-2.389.548-2.389 1.715 0 1.387.45 8.306.773 12.153.26 2.362.552 2.972 1.584 2.972.355 0 .808-.063.898-.063l.13.162-.291 2.038c-.391 0-2.133-.099-3.264-.099-1.423 0-4.463.225-4.593.26l.224-2.1c1.262-.162 1.796-.615 1.796-1.616s-.646-8.957-.678-11.157h-.291a428.43 428.43 0 0 0-5.047 14.838l-2.195.292a396.272 396.272 0 0 0-5.02-15.12z"/><path d="m107.154 23.75-.26-.098c-1.294 1.346-2.748 2.46-3.556 2.46-2.519 0-4.427-2.007-4.427-4.687a2.667 2.667 0 0 1 1.877-2.694l6.236-1.454.036-.777c0-1.84-1.038-2.94-2.784-2.94-1.194 0-2.694.677-3.78 1.517l-.292-.13-.548-1.94c1.872-1.064 4.813-2.456 5.913-2.456 3.753 0 5.387 1.908 5.387 4.395 0 1.1-.646 5.208-.646 6.663 0 .808.449 1.324 1.163 1.324a3.066 3.066 0 0 0 1.549-.547l.453.695c-.646 1.163-1.94 2.842-3.102 3.143-1.895 0-3.026-.857-3.22-2.474zm-.292-1.647.099-3.071-3.462.97a.947.947 0 0 0-.772 1.064 1.832 1.832 0 0 0 1.796 1.975 4.39 4.39 0 0 0 2.339-.938z"/><path d="m124.87 12.598-.13.194a4.454 4.454 0 0 1 1.292 3.2c0 3.296-2.94 5.756-6.95 5.756a8.687 8.687 0 0 1-2.1-.26c-.553.422-.777.745-.777 1.1 0 2.325 10.891.031 10.891 5.073 0 3.07-4.166 6.016-8.566 6.016-3.425 0-5.688-1.796-5.688-4.562a17.415 17.415 0 0 1 3.232-2.357v-.229c-2.038-.354-3.232-1.548-3.33-3.295a14.694 14.694 0 0 1 2.653-2.168v-.193a4.835 4.835 0 0 1-2.456-4.364c0-3.426 2.842-5.98 6.69-5.98 1.346 0 2.33.323 3.33.323a28.535 28.535 0 0 0 4.526-1.068l.193.13-.418 2.491c-.812.095-1.746.162-2.393.193zm-8.019 16.679c0 1.262 1.064 2.007 2.91 2.007 2.132 0 3.748-1.037 3.748-2.393 0-1.037-.84-1.325-5.432-1.94a3.219 3.219 0 0 0-1.226 2.326zm5.235-12.8c0-2.244-1.064-3.555-2.78-3.555-1.548 0-2.392 1.131-2.392 3.142 0 2.2 1.037 3.525 2.748 3.525 1.553.022 2.424-1.073 2.424-3.112z"/><path d="M125.642 18.803c0-4.687 3.268-8.243 7.632-8.243 3.591 0 5.428 1.845 5.428 5.495a8.189 8.189 0 0 1-.225 1.796l-.386.39h-8.373c.063 3.17 1.58 4.85 4.135 4.85a9.729 9.729 0 0 0 3.847-.97l.225.13.52 1.585c-1.346 1.032-3.784 2.388-5.494 2.388-4.53 0-7.31-2.828-7.31-7.421zm8.485-2.586c.516-.031.615-.162.615-.74 0-1.586-.714-2.394-2.038-2.394-1.68 0-2.78 1.163-3.004 3.394z"/></g><g fill="#1273eb"><path d="M85.874 42.73V27.98h3.325v5.678h5.09v-5.679h3.349v14.75h-3.349v-6.153H89.2v6.154zM100.227 42.73V27.98h4.162q1.697 0 3.054.43t2.33 1.334q.973.882 1.493 2.262t.52 3.28-.52 3.304-1.47 2.33q-.95.905-2.285 1.357-1.312.452-2.94.452zm3.325-2.692h.634q.95 0 1.719-.25t1.312-.791q.543-.566.837-1.47.317-.905.317-2.24 0-1.312-.317-2.195-.294-.904-.837-1.425-.543-.543-1.312-.769t-1.72-.226h-.633z"/></g><g aria-label="ArcoMage"><path d="M69.007 161.98q.413 0 .73.22.316.213.467.53.158.316.165.66 0 .33-.082.667-.076.337-.172.571-.097.227-.186.495-.083.262-.09.468-.007.048-.007.097 0 .192.117.392.124.2.29.295.144.083.268.049.13-.035.192-.097l.165-.151q.097-.09.186-.11.138-.041.145.076.013.117-.076.192-.069.062-.186.18-.117.116-.165.157-.048.042-.13.097-.083.048-.166.075-.254.07-.447-.02-.186-.09-.289-.296-.096-.206-.144-.44-.049-.234-.049-.482.007-.33.18-1.025.178-.702.144-1.087-.048-.536-.358-.894-.303-.365-.702-.365-.35 0-.64.138-.281.13-.48.371-.194.241-.324.537-.13.296-.213.66-.097.544-.062.819.034.275.082.722.048.447.007.833-.007.117-.082.254-.07.13-.165.193-.117.076-.324.11-.2.034-.358.007-.158-.028-.15-.117.013-.09.082-.124.075-.034.165-.027.09.007.172-.028.09-.041.117-.13.082-.241.055-.737-.02-.502-.049-.9-.027-.407.104-.874.275-.82.784-1.314t1.204-.626q.137-.021.275-.021zm-1.176 1.85q.069-.186.261-.323.193-.138.392-.151.262-.021.523.103t.261.316q0 .09-.096.117-.09.028-.158-.007-.028-.014-.275-.165-.241-.151-.372-.138-.144.014-.234.159-.082.137-.075.31.014.171.117.274.075.076.227.22.158.138.227.214.068.069.158.192.096.124.137.262.042.13.049.302 0 .276-.2.489-.192.206-.468.227h-.117q-.275 0-.543-.076-.076-.034-.076-.117 0-.062.048-.103.049-.034.317.028.275.055.35 0 .083-.062.138-.172.055-.117.055-.22 0-.076-.02-.152-.02-.151-.138-.282-.117-.138-.268-.275-.152-.145-.22-.268-.09-.186-.09-.386t.09-.378zM71.357 163.56q-.138-.02-.165-.062-.028-.048.041-.241.076-.193.145-.213.034-.007.041.041.007.048 0 .11t.007.117q.02.055.076.055.117 0 .481.007h.489q.11 0 .117.145 0 .034-.18.268-.178.227-.364.44l-.179.206h.681q.076 0 .076.097.007.096-.034.158-.028.062-.152.31-.124.24-.179.371-.055.124-.117.323-.061.2-.061.358v.028q0 .13.075.282.083.144.2.22.185.117.413.117.171 0 .323-.07.296-.15.578-.914.09-.296.165-.722.082-.427.103-.73.007-.075.007-.15 0-.331-.062-.654h-.117q-.027 0-.055-.035-.02-.041-.014-.076.014-.034.07-.034h.59q.063 0 .07.034.013.035-.014.076-.028.035-.055.035h-.11q.062.426.062.853v.075q-.007.372-.138.867-.124.489-.289.812-.11.2-.337.413-.227.206-.433.302-.248.103-.51.103-.178 0-.343-.048-.234-.055-.406-.261-.165-.213-.165-.454 0-.02.007-.041 0-.227.123-.585.131-.365.255-.612l.124-.248h-.743q-.055 0-.076-.055-.02-.055.007-.124.014-.034.2-.261.192-.227.378-.427l.179-.206zM75.797 162.54q.193 0 .234.144.048.145-.117.365-.083.096-.337.371-.255.269-.434.475-.178.206-.172.261 0 .07.379.427.378.35.385.42 0 .075-.344.343-.344.262-.35.317-.021.069.178.31.2.24.4.453l.206.207.007-.007.027-.02.048-.035q.02-.014.048-.028.028-.02.049-.027.02-.007.04-.007.022-.007.035.007.07.076-.24.35-.31.269-.379.241-.048-.034-.034-.082.02-.048.069-.096l.048-.048-.11-.09q-.062-.062-.234-.22l-.303-.289q-.13-.138-.24-.275-.11-.138-.11-.2-.014-.096.15-.247.173-.158.345-.296.172-.138.172-.186.007-.055-.172-.213-.172-.158-.344-.33-.172-.18-.172-.269.007-.096.289-.405.289-.31.577-.606.296-.296.303-.35.007-.042-.02-.138-.028-.103-.014-.158.02-.062.13-.062z"/><path d="M76.947 163.21h.165q.186 0 .248.007.069.007.069.048.007.055-.055.076-.062.013-.131.02-.069 0-.076.028l-.055.577 1.438-.165q.041-.55.158-.612.069-.034.138-.034.075 0 .144.034.09.035.028.427-.138 1.148-.393 2.27-.027.09-.282.117-.97.09-1.265.261-.186.103-.434.35-.24.242-.192.359.034.082.123.11.09.027.166.013.082-.013.123-.048.062-.041-.007-.158-.062-.11.007-.186.035-.041.214-.007.179.028.206.11.048.124-.138.262-.185.144-.371.2-.103.04-.213.04-.165 0-.296-.089-.069-.041-.117-.124-.041-.082-.041-.158 0-.11.062-.2.096-.185.378-.357.282-.179.592-.296.206-.069.502-.13.302-.07.447-.118.144-.055.165-.144.117-.44.172-.894l.103-.798q-.908.117-1.41.172-.041.653-.11.743-.069.096-.193.068-.117-.034-.117-.137.028-.647.048-1.018.028-.379.028-.427-.007-.041-.069-.02-.062.013-.138 0-.075-.014-.075-.097 0-.075.454-.075zm2.36 1.94H79.3q.062.007.034.261-.02.165-.117.193-.096.027-.165-.117-.014-.035-.014-.076 0-.11.076-.186.076-.075.186-.075h.007zM80.547 161.98q.255 0 .358.034.103.028.2.179.096.151.171.303.083.144.172.33.09.186.158.316.07.062.166.062.103 0 .171-.076.853-1.107 1.06-1.148.234-.02.468-.02.24 0 .474.02.055.007.11.007.062 0 .076.007.02 0 .028.02.013.014.013.055 0 .138-.103.18-.103.04-.22.02-.11-.02-.179 0 0 3.144-.082 3.618-.049.248-.537.24-.055-.006-.151 0-.097.008-.165.008-.062 0-.131-.007-.062-.007-.096-.034-.035-.035-.028-.09.007-.062.083-.09.075-.027.165-.034.096-.007.179-.062.082-.055.103-.172.048-.316.069-.798.027-.481.04-1.135.015-.66.028-.915v-.543q-.117.055-.254.165-.138.11-.213.213-.131.165-.537.695-.399.523-.537.681-.04.055-.11.055-.068 0-.11-.055l-.853-1.65q-.014 2.097-.041 4.072 0 .2.172.234.193.04.31-.172.034-.055.055-.124.04-.131.04-.262.008-.13-.04-.172-.138-.082-.138-.234 0-.282.248-.282.172 0 .22.159.048.151.041.536-.007.544-.633.922-.151.11-.344.11-.179 0-.33-.103-.083-.048-.124-.179-.034-.13-.034-.282.007-.151.007-.323.014-.365.034-1.356t.028-1.802l.013-.812h-.02q-.014 0-.048.007H79.7l-.082-.013q-.042-.007-.076-.021-.028-.014-.048-.034-.014-.028-.014-.055 0-.055.02-.09t.062-.055q.042-.027.104-.034.068-.014.151-.014.09-.007.2 0h.53zM85.907 163.36q.406.007.688.302.289.29.289.695v.035q.007.302-.09.605-.096.303-.192.557-.096.255-.096.434-.007.027-.007.061 0 .138.082.29.09.144.213.213.11.062.2.04.09-.027.137-.075.048-.048.117-.11.07-.062.138-.082.103-.028.11.062.007.082-.055.137-.055.048-.144.13l-.117.118q-.035.027-.097.069-.055.034-.117.055-.185.048-.323-.014-.138-.069-.213-.213-.07-.152-.103-.317-.035-.172-.035-.35.007-.255.13-.757.132-.503.104-.778-.034-.392-.254-.653t-.516-.262q-.489 0-.785.337-.289.337-.412.902-.09.295-.021.853.076.55.041.866-.007.083-.062.172-.048.09-.117.138-.082.055-.233.076-.145.027-.262.007-.11-.021-.11-.083.007-.062.062-.082.055-.028.117-.028.069 0 .13-.02.063-.028.09-.09.055-.186.034-.543-.013-.365-.034-.654-.02-.289.076-.626.192-.592.564-.95.371-.357.873-.453.097-.014.193-.014h.007zm-.86 1.341q.055-.13.193-.234.137-.103.282-.11.186-.02.371.076.193.09.193.227 0 .062-.069.082-.062.021-.117-.007-.014-.007-.192-.117-.18-.11-.276-.096-.158.014-.213.22-.048.2.069.317.055.048.172.158.117.103.165.158.055.048.124.138.069.09.096.192.028.097.034.22 0 .2-.144.351-.144.152-.344.165h-.076q-.2 0-.399-.061-.055-.021-.055-.083 0-.041.035-.069t.227.014q.2.041.261.007.055-.048.096-.13.042-.083.042-.159 0-.055-.014-.103-.028-.145-.22-.33-.193-.186-.24-.275-.063-.131-.063-.276t.062-.275z"/><path d="M91.277 164.16q0 .027-.014.068-.007.035-.02.07-.014.034-.042.082t-.048.082q-.02.028-.069.09l-.062.082-.068.09q-.048.063-.07.089-.199.268-.501.53-.303.254-.544.406-.234.15-.626.392-.392.234-.557.337l-.323.22q-.214.144-.303.2-.083.054-.206.11-.124.054-.22.061-.062 0-.11-.048-.042-.041-.042-.103v-.007q.028-.083.076-.158.007-.02.014-.083.013-.062.034-.103.02-.048.062-.062.027-.007.103.014.083.014.124-.007.034-.007.303-.09.275-.089.405-.144.351-.158.819-.44.468-.282.777-.523.145-.13.317-.337.172-.213.268-.385.096-.172.096-.379v-.013q.014-.076-.04-.2-.049-.13-.118-.158-.124-.035-.247-.035-.186 0-.358.076-.083.048-.18.151-.095.097-.095.159.007.041.034.075.034.035.076.035.062 0 .103-.097.041-.103.13-.103h.008q.055 0 .096.042.048.04.048.103 0 .103-.144.213-.145.103-.227.103-.09 0-.159-.041-.061-.041-.096-.09-.034-.054-.117-.096-.076-.048-.2-.048-.22.007-.44.069-.027.007-.048.02-.02.014-.034.021-.007.007-.014.02-.007.014-.007.021v.028q0 .007.048.082.048.076.048.104 0 .096-.096.137-.09.035-.179.035-.179 0-.179-.11 0-.028.042-.11.041-.09.041-.118 0-.055-.11-.24-.103-.186-.172-.186-.09 0-.206.165-.11.158-.124.227-.007.034-.007.062.007.027 0 .069t-.035.082q-.096.083-.22.083-.254 0-.254-.172 0-.055.02-.076.02-.02.083-.041.062-.028.096-.048.172-.159.262-.372.034-.055.075-.144.042-.09.062-.124.028-.035.069-.062.048-.034.117-.034.076 0 .13.027.062.028.083.055.028.02.09.096.061.07.082.097.124.137.31.151.185.014.612-.041.124-.014.2-.09.075-.082.171-.192.103-.11.262-.165.117-.062.247-.07h.048q.138 0 .317.056.186.048.303.117.089.062.15.179.07.11.07.22v.041zM94.357 163.36v.007q.055-.02.09.055.04.075-.021.11-.468.268-1.115.688-.646.412-1.087.729.145 0 .406.007t.475.007q.213 0 .406-.014.117-.007.186.069.075.076 0 .165-.2.206-.558.57-.357.359-.467.476-.159.158-.11.178.007.007.027.007.268.007 2.043.076.09.007.11.103.02.09-.027.18-.042.089-.103.089-2.016-.048-2.477-.048-.22-.007-.213-.055 0-.014.014-.035.165-.2.35-.399.193-.206.44-.46.255-.262.38-.393.137-.151.088-.172-.013-.007-.034-.007h-1.266q-.027 0-.068.014-.035.007-.055.027-.007 0-.021.014-.048.048-.076.069-.02.02-.055.069-.034.048-.048.082t-.02.083q0 .048.027.096.014.028.062.062.048.027.096.041t.083.042q.041.027.041.055t-.041.075q-.076.076-.207.13-.124.056-.227.056h-.048q-.172-.048-.206-.227-.035-.179.055-.344.082-.151.186-.289.103-.138.268-.282.172-.151.247-.213l.303-.227q.282-.22.709-.489t.75-.426q.337-.2.708-.351zm-2.497.557h.02q.07 0 .138.041.069.042.103.103.07.124-.075.255-.145.124-.324.11-.165-.014-.082-.248.09-.213.22-.261zm2.752 1.135q.089-.034.15.144.028.138-.075.296-.11.159-.213.028-.048-.076-.048-.172 0-.083.055-.172.055-.09.13-.124z"/></g></svg>